<?xml version="1.0" encoding="iso-8859-1"?>
<!-- Generator: Adobe Illustrator 19.0.0, SVG Export Plug-In . SVG Version: 6.00 Build 0)  -->
<svg version="1.1" id="Capa_1" xmlns="http://www.w3.org/2000/svg" xmlns:xlink="http://www.w3.org/1999/xlink" x="0px" y="0px"
	 viewBox="0 0 513.067 513.067" style="enable-background:new 0 0 513.067 513.067;" xml:space="preserve">
<g>
	<polygon style="fill:#66C6B9;" points="110.4,355.2 66.667,512 118.933,512 162.667,355.2 	"/>
	<polygon style="fill:#66C6B9;" points="325.867,355.2 273.6,355.2 318.4,512 370.667,512 	"/>
</g>
<path style="fill:#F3705A;" d="M412.267,0h-387.2C11.2,0,0.533,10.667,0.533,24.533S11.2,49.067,25.067,49.067h387.2
	c13.867,0,24.533-10.667,24.533-24.533C436.8,10.667,425.067,0,412.267,0z"/>
<path style="fill:#F3F3F3;" d="M410.133,49.067v281.6c0,19.2-16,35.2-35.2,35.2H60.267c-19.2,0-35.2-16-35.2-35.2v-281.6H410.133z"
	/>
<path style="fill:#F7B64C;" d="M211.733,184.533V153.6c-9.6-3.2-17.067-6.4-21.333-12.8S184,128,184,120.533
	c0-8.533,2.133-14.933,7.467-20.267c5.333-5.333,11.733-8.533,20.267-9.6V83.2H222.4v7.467c7.467,1.067,13.867,3.2,18.133,7.467
	C244.8,102.4,248,108.8,249.067,115.2l-18.133,2.133c-1.067-5.333-4.267-9.6-8.533-11.733v28.8c11.733,3.2,20.267,7.467,24.533,12.8
	s6.4,11.733,6.4,19.2c0,8.533-3.2,16-8.533,22.4c-5.333,6.4-12.8,9.6-22.4,10.667v13.867h-10.667v-13.867
	c-8.533-1.067-14.933-4.267-20.267-9.6c-5.333-5.333-8.533-12.8-10.667-22.4l19.2-2.133c1.067,4.267,2.133,7.467,4.267,10.667
	C207.467,180.267,209.6,182.4,211.733,184.533z M211.733,106.667c-3.2,1.067-5.333,2.133-6.4,5.333
	c-2.133,2.133-2.133,5.333-2.133,7.467s1.067,5.333,2.133,7.467c1.067,2.133,4.267,4.267,7.467,5.333v-25.6H211.733z M222.4,185.6
	c3.2-1.067,6.4-2.133,8.533-5.333c2.133-3.2,3.2-6.4,3.2-9.6s-1.067-6.4-3.2-8.533s-5.333-4.267-9.6-5.333v28.8H222.4z"/>
<polygon style="fill:#55C0EB;" points="370.667,189.867 357.867,225.067 351.467,216.533 280,276.267 244.8,256 188.267,299.733 
	121.067,265.6 79.467,329.6 65.6,321.067 115.733,245.333 187.2,281.6 243.733,236.8 277.867,257.067 340.8,204.8 334.4,196.267 "/>
<path style="fill:#415A6B;" d="M374.933,512h37.333c1.067-11.733,2.133-21.333,2.133-24.533c1.067-9.6,7.467-44.8,8.533-54.4
	c1.067-9.6,6.4-18.133,7.467-26.667c1.067-8.533,4.267-25.6,4.267-25.6c6.4,16,13.867,76.8,14.933,96
	c0,8.533,2.133,22.4,5.333,36.267h38.4c0-16-1.067-34.133-1.067-41.6c-1.067-10.667-2.133-29.867-3.2-42.667
	c0-12.8,0-77.867,0-77.867L378.133,345.6c0,0,0,44.8,0,57.6s-1.067,67.2-1.067,67.2S376,490.667,374.933,512z"/>
<g>
	
		<ellipse transform="matrix(0.2979 -0.9546 0.9546 0.2979 205.2051 524.4558)" style="fill:#FFD15C;" cx="459.135" cy="122.726" rx="8.533" ry="5.333"/>
	
		<ellipse transform="matrix(0.2979 0.9546 -0.9546 0.2979 408.6199 -311.0831)" style="fill:#FFD15C;" cx="415.789" cy="122.244" rx="8.533" ry="5.333"/>
	<path style="fill:#FFD15C;" d="M460.267,117.333l-1.067,8.533c0,0-1.067,10.667-3.2,16V160l-25.6,16l-9.6-21.333l1.067-13.867
		c0,0-3.2-10.667-4.267-18.133c-1.067-7.467-2.133-20.267-1.067-24.533c1.067-4.267,9.6-12.8,22.4-11.733
		c12.8,1.067,22.4,2.133,23.467,8.533C462.4,101.333,460.267,117.333,460.267,117.333z"/>
</g>
<polygon style="fill:#CED6E0;" points="436.8,166.4 462.4,166.4 437.867,262.4 409.067,166.4 "/>
<g>
	<polygon style="fill:#F3705A;" points="442.133,181.333 446.4,176 436.8,166.4 427.2,176 432.533,181.333 	"/>
	<polygon style="fill:#F3705A;" points="432.533,181.333 427.2,249.6 436.8,259.2 446.4,249.6 442.133,181.333 	"/>
</g>
<path style="fill:#415A6B;" d="M415.467,123.733c0,0-1.067-8.533,1.067-12.8c2.133-4.267,2.133-7.467,3.2-9.6
	c0-3.2,3.2-4.267,7.467-4.267c4.267,0,17.067,1.067,20.267,0c3.2-1.067,8.533,2.133,8.533,6.4c0,4.267-1.067,4.267,0,6.4
	s2.133,12.8,2.133,14.933c0,0,4.267-7.467,5.333-11.733c1.067-3.2,4.267-16-3.2-25.6s-35.2-16-44.8-1.067
	S414.4,121.6,415.467,123.733z"/>
<path style="fill:#344A5E;" d="M469.867,163.2c0,0,21.333,11.733,25.6,13.867c4.267,1.067,8.533,3.2,8.533,3.2
	S489.067,211.2,486.933,227.2c-3.2,16,7.467,136.533,7.467,136.533s-27.733,8.533-39.467,5.333c-11.733-3.2-20.267-16-23.467-40.533
	s0-65.067,0-65.067s32-69.333,34.133-73.6C467.733,185.6,469.867,163.2,469.867,163.2z"/>
<path style="fill:#F3F3F3;" d="M454.933,148.267c0,0-3.2,6.4-9.6,11.733c-6.4,5.333-8.533,6.4-8.533,6.4s6.4,7.467,7.467,11.733
	c2.133,3.2,4.267,6.4,4.267,6.4s10.667-19.2,11.733-23.467S454.933,148.267,454.933,148.267z"/>
<path style="fill:#415A6B;" d="M458.133,153.6c0,0,1.067,13.867-1.067,26.667s-13.867,57.6-26.667,83.2
	c0,0,33.067-43.733,43.733-83.2l-7.467-6.4l5.333-2.133c0,0-2.133-5.333-4.267-8.533c-2.133-2.133-3.2-2.133-4.267-3.2
	C462.4,158.933,459.2,153.6,458.133,153.6z"/>
<path style="fill:#FFD15C;" d="M483.733,354.133l-6.4,8.533c0,0-4.267,7.467-5.333,10.667c-1.067,2.133-2.133,5.333-2.133,5.333
	s5.333,4.267,8.533-4.267l3.2-4.267c0,0,2.133,1.067,3.2,2.133c1.067,0,1.067,2.133,1.067,2.133s-1.067,3.2-1.067,5.333
	c0,2.133,0,1.067,0,1.067s-2.133,4.267-2.133,5.333c0,0-3.2,3.2-3.2,4.267c0,0-5.333,3.2-3.2,7.467l2.133-1.067
	c0,0,0,1.067,2.133,1.067l3.2-2.133l12.8-7.467c1.067-1.067,2.133-2.133,2.133-3.2l3.2-7.467c0-1.067,0-2.133,0-2.133v-21.333
	L483.733,354.133z"/>
<path style="fill:#415A6B;" d="M512.533,268.8l-7.467,93.867c0,0-4.267-3.2-11.733-5.333c-4.267-1.067-8.533-2.133-12.8-1.067
	c0,0,5.333-37.333,4.267-51.2c-2.133-13.867,0-68.267,2.133-78.933c3.2-16,17.067-46.933,17.067-46.933s4.267-1.067,4.267,8.533
	c0,9.6,0,33.067,2.133,50.133C512.533,256,512.533,268.8,512.533,268.8z"/>
<path style="fill:#344A5E;" d="M404.8,163.2c0,0-21.333,11.733-25.6,13.867c-4.267,1.067-8.533,3.2-8.533,3.2
	S385.6,211.2,387.733,227.2c3.2,16-7.467,136.533-7.467,136.533s27.733,8.533,39.467,5.333c11.733-3.2,20.267-16,23.467-40.533
	c3.2-24.533,0-65.067,0-65.067s-32-69.333-34.133-73.6C409.067,185.6,404.8,163.2,404.8,163.2z"/>
<path style="fill:#F3F3F3;" d="M419.733,148.267c0,0,3.2,6.4,9.6,11.733c6.4,5.333,8.533,6.4,8.533,6.4s-6.4,7.467-7.467,11.733
	c-2.133,3.2-4.267,6.4-4.267,6.4s-10.667-19.2-11.733-23.467S419.733,148.267,419.733,148.267z"/>
<path style="fill:#415A6B;" d="M416.533,153.6c0,0-1.067,13.867,1.067,26.667s13.867,57.6,26.667,83.2
	c0,0-33.067-43.733-43.733-83.2l7.467-6.4l-7.467-3.2c0,0,2.133-5.333,4.267-8.533c2.133-2.133,3.2-2.133,4.267-3.2
	C410.133,157.867,414.4,153.6,416.533,153.6z"/>
<path style="fill:#FFD15C;" d="M390.933,354.133l6.4,8.533c0,0,4.267,7.467,5.333,10.667c1.067,2.133,2.133,5.333,2.133,5.333
	s-5.333,4.267-8.533-4.267l-3.2-4.267c0,0-2.133,1.067-3.2,2.133c-1.067,0-1.067,2.133-1.067,2.133s1.067,3.2,1.067,5.333
	c0,2.133,0,1.067,0,1.067s2.133,4.267,2.133,5.333c0,0,3.2,3.2,3.2,4.267c0,0,5.333,3.2,3.2,7.467l-2.133-3.2
	c0,0,0,1.067-2.133,1.067l-3.2-1.067l-12.8-7.467c-1.067-1.067-2.133-2.133-2.133-3.2l-3.2-7.467c0-1.067,0-2.133,0-2.133v-21.333
	L390.933,354.133z"/>
<path style="fill:#415A6B;" d="M362.133,268.8l7.467,93.867c0,0,4.267-3.2,11.733-5.333c4.267-1.067,8.533-2.133,12.8-1.067
	c0,0-5.333-37.333-4.267-51.2c2.133-13.867,0-68.267-2.133-78.933c-3.2-16-17.067-46.933-17.067-46.933s-4.267-1.067-4.267,8.533
	c0,9.6,0,33.067-2.133,50.133C362.133,256,362.133,268.8,362.133,268.8z"/>
<g>
</g>
<g>
</g>
<g>
</g>
<g>
</g>
<g>
</g>
<g>
</g>
<g>
</g>
<g>
</g>
<g>
</g>
<g>
</g>
<g>
</g>
<g>
</g>
<g>
</g>
<g>
</g>
<g>
</g>
</svg>
