<?xml version="1.0" encoding="iso-8859-1"?>
<!-- Generator: Adobe Illustrator 19.0.0, SVG Export Plug-In . SVG Version: 6.00 Build 0)  -->
<svg version="1.1" id="Capa_1" xmlns="http://www.w3.org/2000/svg" xmlns:xlink="http://www.w3.org/1999/xlink" x="0px" y="0px"
	 viewBox="0 0 513.067 513.067" style="enable-background:new 0 0 513.067 513.067;" xml:space="preserve">
<polygon style="fill:#415A6B;" points="303.467,386.133 285.333,404.267 255.467,375.467 225.6,404.267 207.467,386.133 
	241.6,350.933 241.6,306.133 268.267,306.133 268.267,350.933 "/>
<circle style="fill:#FFD15C;" cx="255.467" cy="139.733" r="139.733"/>
<circle style="fill:#F7B64C;" cx="255.467" cy="139.733" r="97.067"/>
<g>
	<path style="fill:#FFD15C;" d="M250.133,177.067V144c-10.667-3.2-18.133-7.467-22.4-13.867c-4.267-6.4-7.467-12.8-7.467-22.4
		c0-8.533,3.2-16,8.533-22.4c5.333-6.4,12.8-9.6,22.4-10.667v-5.333h11.733V76.8c6.4,1.067,13.867,4.267,18.133,8.533
		c4.267,4.267,8.533,10.667,9.6,19.2l-19.2,2.133c-1.067-6.4-4.267-10.667-9.6-12.8V124.8c12.8,3.2,21.333,7.467,25.6,13.867
		c4.267,5.333,6.4,12.8,6.4,21.333c0,9.6-3.2,18.133-8.533,24.533c-5.333,6.4-13.867,10.667-24.533,11.733V211.2h-11.733v-14.933
		c-9.6-1.067-17.067-4.267-22.4-10.667c-5.333-5.333-9.6-13.867-10.667-24.533l20.267-2.133c1.067,4.267,2.133,7.467,4.267,10.667
		C244.8,173.867,246.933,176,250.133,177.067z M250.133,93.867c-3.2,1.067-5.333,3.2-7.467,5.333c-2.133,2.133-3.2,5.333-3.2,8.533
		c0,3.2,1.067,5.333,2.133,7.467c2.133,2.133,4.267,4.267,7.467,5.333V93.867H250.133z M261.867,179.2
		c4.267-1.067,7.467-2.133,9.6-5.333c2.133-3.2,3.2-6.4,3.2-10.667c0-3.2-1.067-6.4-3.2-9.6c-2.133-3.2-5.333-4.267-10.667-6.4v32
		H261.867z"/>
	<path style="fill:#FFD15C;" d="M169.067,337.067c-2.133,8.533-5.333,13.867-7.467,13.867c-2.133-1.067-3.2-7.467-1.067-16
		s5.333-13.867,7.467-13.867C170.133,321.067,171.2,328.533,169.067,337.067z"/>
	<path style="fill:#FFD15C;" d="M86.933,346.667c-3.2,1.067-6.4-5.333-8.533-13.867c-2.133-8.533-1.067-14.933,2.133-16
		c3.2-1.067,8.533,5.333,9.6,12.8C92.267,338.133,89.067,346.667,86.933,346.667z"/>
	<path style="fill:#FFD15C;" d="M164.8,327.467c0,0-6.4,37.333-12.8,49.067c0,0-4.267,17.067-2.133,29.867S152,420.267,152,420.267
		l-36.267,9.6l-25.6-33.067c0,0,1.067-21.333,0-27.733c0,0-4.267-18.133-4.267-34.133c0-14.933,9.6-45.867,9.6-45.867
		s10.667-12.8,11.733-13.867l30.933-1.067l24.533,8.533C161.6,283.733,165.867,311.467,164.8,327.467z"/>
</g>
<path style="fill:#F7B64C;" d="M149.867,406.4c-1.067-11.733,1.067-26.667,2.133-29.867c-7.467,6.4-16,11.733-23.467,10.667
	c-25.6,0-38.4-19.2-38.4-19.2c9.6,23.467,39.467,36.267,60.8,42.667C149.867,409.6,149.867,408.533,149.867,406.4z"/>
<path style="fill:#8AD7F8;" d="M246.933,512c-4.267-12.8-10.667-30.933-10.667-36.267c0-8.533-9.6-25.6-9.6-25.6
	c0-6.4-14.933-19.2-30.933-25.6c-16-7.467-43.733-22.4-43.733-22.4l-8.533,12.8L129.6,416h-4.267l-29.867,5.333l-14.933-22.4
	c0,0-33.067,11.733-49.067,19.2S6.933,441.6,6.933,442.667l0,0c0,0-4.267,16-4.267,26.667s0,28.8-1.067,39.467
	c0,1.067,0,2.133,0,4.267h245.333V512z"/>
<path style="fill:#344A5E;" d="M126.4,512h37.333c-1.067-4.267-2.133-8.533-3.2-11.733c-7.467-19.2-19.2-40.533-21.333-45.867
	c-3.2-5.333-3.2-17.067-3.2-17.067L132.8,432c0,0-8.533,3.2-8.533,7.467c0,0,0,20.267,0,41.6
	C124.267,488.533,125.333,500.267,126.4,512z"/>
<g>
	<path style="fill:#415A6B;" d="M116.8,421.333c0,0,7.467,11.733,7.467,18.133c0,0,9.6-3.2,11.733-2.133
		c0,0,4.267-11.733,4.267-14.933c1.067-3.2,0,0,0,0L129.6,416h-4.267L116.8,421.333z"/>
	<path style="fill:#415A6B;" d="M86.933,331.733h2.133c0,0,0-19.2,4.267-21.333c4.267-3.2,5.333-10.667,6.4-14.933
		c0-4.267,2.133-8.533,10.667-8.533s35.2,2.133,41.6,1.067s9.6,3.2,9.6,8.533s-1.067,13.867,1.067,18.133S161.6,336,161.6,336h2.133
		c0,0,1.067-12.8,4.267-13.867c0,0,2.133-20.267-2.133-32s-17.067-19.2-22.4-22.4c-5.333-3.2-32-4.267-41.6,3.2
		c-9.6,7.467-14.933,16-16,21.333C84.8,297.6,81.6,318.933,81.6,318.933S89.067,320,86.933,331.733z"/>
</g>
<g>
	<path style="fill:#55C0EB;" d="M149.867,391.467c0,0-1.067,7.467-4.267,11.733c-3.2,4.267-16,12.8-16,12.8s8.533,4.267,21.333,32
		c0,0,3.2-17.067,2.133-22.4c0-6.4-1.067-12.8-2.133-19.2C150.933,401.067,152,394.667,149.867,391.467"/>
	<path style="fill:#55C0EB;" d="M90.133,381.867c0,0,0,7.467,9.6,14.933c9.6,8.533,26.667,19.2,26.667,19.2l-26.667,27.733
		c0,0-6.4-13.867-9.6-17.067c-3.2-4.267-11.733-14.933-11.733-25.6c0,0,3.2-6.4,5.333-9.6C84.8,389.333,86.933,384,90.133,381.867"
		/>
</g>
<path style="fill:#F7B64C;" d="M354.667,375.467v26.667c0,0-6.4,26.667,3.2,44.8c30.933-6.4,65.067-10.667,55.467-44.8v-26.667
	H354.667z"/>
<polygon style="fill:#CED6E0;" points="422.933,512 444.267,439.467 372.8,439.467 338.667,429.867 339.733,512 "/>
<polygon style="fill:#F3705A;" points="398.4,512 392,465.067 374.933,465.067 368.533,512 "/>
<polygon style="fill:#F05540;" points="392,465.067 400.533,456.533 383.467,439.467 366.4,456.533 374.933,465.067 "/>
<path style="fill:#F3F3F3;" d="M353.6,402.133c0,0-2.133,8.533,0,12.8c2.133,4.267,28.8,23.467,28.8,23.467L357.867,464l-16-33.067
	L347.2,412.8c1.067-3.2,2.133-5.333,3.2-7.467C351.467,404.267,352.533,403.2,353.6,402.133z"/>
<path style="fill:#344A5E;" d="M351.467,512L340.8,460.8l-1.067-35.2L283.2,446.933c-13.867,5.333-24.533,19.2-25.6,34.133
	L255.467,512H351.467z"/>
<path style="fill:#415A6B;" d="M331.2,512h27.733c-3.2-19.2-6.4-37.333-8.533-45.867c-5.333-20.267-3.2-54.4-3.2-54.4
	c-2.133,1.067-6.4,8.533-6.4,8.533c-4.267,5.333-8.533,11.733-10.667,18.133c-4.267,9.6-8.533,21.333-8.533,21.333l13.867-1.067
	L318.4,473.6L331.2,512z"/>
<path style="fill:#F3F3F3;" d="M412.267,402.133c0,0,2.133,8.533,0,12.8c-2.133,4.267-28.8,24.533-28.8,24.533l24.533,25.6L424,432
	l-5.333-18.133c-1.067-3.2-2.133-5.333-3.2-7.467C414.4,404.267,413.333,403.2,412.267,402.133z"/>
<path style="fill:#344A5E;" d="M511.467,512l-2.133-30.933c-1.067-14.933-10.667-28.8-25.6-34.133L427.2,425.6l-1.067,35.2
	L415.467,512H511.467z"/>
<path style="fill:#415A6B;" d="M406.933,512h27.733l13.867-37.333l-17.067-14.933l13.867,1.067c0,0-5.333-11.733-8.533-21.333
	c-3.2-6.4-6.4-12.8-10.667-18.133c0,0-4.267-7.467-6.4-8.533c0,0,2.133,34.133-3.2,54.4C413.333,474.667,410.133,492.8,406.933,512z
	"/>
<path style="fill:#FFD15C;" d="M427.2,349.867c-3.2-10.667-1.067-21.333-9.6-30.933c-6.4-8.533-16-13.867-26.667-13.867
	c-11.733,0-21.333,1.067-32,7.467C348.267,320,347.2,330.667,345.067,342.4c0,2.133,0,3.2,0,4.267C344,352,344,357.333,344,362.667
	c0,30.933,18.133,56.533,40.533,56.533c22.4,0,40.533-25.6,40.533-56.533c0-1.067,0-2.133,0-3.2
	C427.2,358.4,428.267,354.133,427.2,349.867z"/>
<path style="fill:#415A6B;" d="M429.333,346.667c0,0-2.133,3.2-4.267,7.467v1.067h-2.133c0-7.467-1.067-18.133-2.133-19.2
	c-2.133-2.133-3.2-4.267-2.133-11.733s-9.6-14.933-19.2-12.8c-9.6,2.133-19.2,2.133-29.867,0c-9.6-2.133-20.267,5.333-20.267,13.867
	c1.067,7.467,0,8.533-1.067,10.667c-1.067,1.067-2.133,11.733-2.133,19.2H344v-1.067c-2.133-4.267-4.267-7.467-4.267-7.467
	s-2.133-22.4-1.067-36.267c2.133-12.8,5.333-18.133,11.733-24.533c3.2-3.2,9.6-5.333,17.067-7.467c11.733-4.267,32-3.2,42.667,3.2
	c2.133,1.067,5.333,3.2,6.4,4.267c7.467,6.4,10.667,11.733,11.733,24.533C431.467,324.267,429.333,346.667,429.333,346.667z"/>
<g>
	
		<ellipse transform="matrix(0.1366 0.9906 -0.9906 0.1366 656.0179 -26.2301)" style="fill:#FFD15C;" cx="343.057" cy="363.229" rx="16" ry="7.466"/>
	
		<ellipse transform="matrix(0.1366 -0.9906 0.9906 0.1366 8.5037 737.162)" style="fill:#FFD15C;" cx="427.147" cy="363.703" rx="16" ry="7.466"/>
</g>
<g>
</g>
<g>
</g>
<g>
</g>
<g>
</g>
<g>
</g>
<g>
</g>
<g>
</g>
<g>
</g>
<g>
</g>
<g>
</g>
<g>
</g>
<g>
</g>
<g>
</g>
<g>
</g>
<g>
</g>
</svg>
