<svg id="icons" enable-background="new 0 0 64 64" height="512" viewBox="0 0 64 64" width="512" xmlns="http://www.w3.org/2000/svg"><path d="m53 1v24.01h-3v2l-6-2-15 .011v-4-13.011-7.01z" fill="#e6e9ed"/><path d="m41 6c3.86 0 7 3.14 7 7 0 3.87-3.14 7-7 7s-7-3.13-7-7c0-3.86 3.14-7 7-7z"/><path d="m29 8.01v13.011h-.01l-6.99-.021-5 2v-2h-3v-12.99h14.99z" fill="#ccd1d9"/><path d="m48 13c0-3.86-3.14-7-7-7s-7 3.14-7 7c0 3.87 3.14 7 7 7s7-3.13 7-7z" fill="#ed5565"/><path d="m20.002 52.061v3.939l-.01.021-3.99 4.979-4-5v-3.939c1.2.6 2.57.939 4 .939s2.8-.34 4-.939z" fill="#eac6bb"/><path d="m59.998 61v2h-10l2-7h3c2.77 0 5 2.24 5 5z" fill="#e6e9ed"/><path d="m54.998 56h-3c2.769.002 4.997 2.241 4.997 5v2h3.003v-2c0-2.76-2.23-5-5-5z" fill="#ccd1d9"/><path d="m43.998 56 2 7h-10v-2c0-2.76 2.24-5 5-5z" fill="#e6e9ed"/><path d="m7.002 34c0-1.66 1.34-3 3-3v6c0 1.66-1.34 3-3 3z" fill="#e9573f"/><path d="m47.998 53c1.43 0 2.8-.34 4-.939v.01 3.929l-2 1-2-1-2 1-2-1v-3.93-.01c1.2.6 2.57.94 4 .94z" fill="#87bcf4"/><path d="m56.998 40.04v3.96c0 3.53-2.04 6.59-5 8.061-1.2.6-2.57.939-4 .939s-2.8-.34-4-.939c-2.96-1.471-5-4.53-5-8.061v-.04-3.92h.01z" fill="#eac6bb"/><path d="m53.995 40.04v3.96c0 3.53-2.04 6.59-5 8.061-.771.385-1.616.648-2.499.799.491.082.99.14 1.502.14 1.43 0 2.8-.34 4-.939 2.96-1.471 5-4.53 5-8.061v-3.96z" fill="#d3b1a9"/><path d="m28.002 38.51v8.511c0-2.381-1.19-4.48-3-5.74v-.01c-1.13-.79-2.51-1.25-4-1.25v-.021h-8c-1.66 0-3-1.34-3-3v-6c1.91-1.95 4.56-2.99 7.5-2.99 5.8 0 10.5 4.7 10.5 10.5z" fill="#fc6e51"/><path d="m17.502 28.01c-.529 0-1.044.045-1.551.112 5.11.708 9.048 5.082 9.048 10.388v2.759c.001.001.002.001.003.002v.01c1.81 1.26 3 3.359 3 5.74v-8.511c0-5.8-4.7-10.5-10.5-10.5z" fill="#e9573f"/><path d="m51.998 56-2 7h-4l-2-7 2 1 2-1 2 1z" fill="#5d9cec"/><path d="m28.002 63h-24v-2c0-2.76 2.23-5 5-5h3l4 5 3.99-4.979.01-.021h3c2.76 0 5 2.24 5 5z" fill="#48cfad"/><path d="m23.002 56h-3c2.758.002 4.997 2.241 4.997 5v2h3.003v-2c0-2.76-2.24-5-5-5z" fill="#37bc9b"/><path d="m41.008 30h14c1.101 0 2 .9 2 2v8.04h-.01-17.99v-8.04c0-1.1.9-2 2-2z" fill="#e6e9ed"/><path d="m55.008 30h-3.003c1.101 0 2 .9 2 2v8.04h2.993.01v-8.04c0-1.1-.9-2-2-2z" fill="#ccd1d9"/><path d="m25.002 41.28v2.72c0 3.53-2.04 6.59-5 8.061-1.2.6-2.57.939-4 .939s-2.8-.34-4-.939c-2.96-1.471-5-4.53-5-8.061v-4c1.66 0 3-1.34 3-3 0 1.66 1.34 3 3 3h8v.021c1.49 0 2.87.46 4 1.25z" fill="#eac6bb"/><path d="m21.999 40.098v3.902c0 3.53-2.04 6.59-5 8.061-.771.385-1.616.648-2.499.799.491.082.99.14 1.502.14 1.43 0 2.8-.34 4-.939 2.96-1.471 5-4.53 5-8.061v-2.72-.01c-.873-.61-1.897-1.016-3.003-1.172z" fill="#d3b1a9"/><path d="" style="fill:none;stroke:#000;stroke-width:2;stroke-linecap:round;stroke-linejoin:round;stroke-miterlimit:10"/><path d="" style="fill:none;stroke:#000;stroke-width:2;stroke-linecap:round;stroke-linejoin:round;stroke-miterlimit:10"/><g fill="#ed5565"><path d="m47.995 38.015c-.553 0-1-.447-1-1v-4.012c0-.553.447-1 1-1s1 .447 1 1v4.012c0 .552-.447 1-1 1z"/><path d="m49.996 36.021h-4.002c-.553 0-1-.447-1-1s.447-1 1-1h4.002c.553 0 1 .447 1 1s-.447 1-1 1z"/><path d="m41 21.001c-4.411 0-8-3.589-8-8s3.589-8 8-8 8 3.589 8 8-3.589 8-8 8zm0-14c-3.309 0-6 2.691-6 6s2.691 6 6 6 6-2.691 6-6-2.691-6-6-6z"/></g><path d="m41 16.999c-.553 0-1-.447-1-1v-6c0-.553.447-1 1-1s1 .447 1 1v6c0 .553-.447 1-1 1z" fill="#e6e9ed"/><path d="m44 13.999h-6c-.553 0-1-.447-1-1s.447-1 1-1h6c.553 0 1 .447 1 1s-.447 1-1 1z" fill="#e6e9ed"/></svg>