<?xml version="1.0" encoding="iso-8859-1"?>
<!-- Generator: Adobe Illustrator 19.0.0, SVG Export Plug-In . SVG Version: 6.00 Build 0)  -->
<svg version="1.1" id="Capa_1" xmlns="http://www.w3.org/2000/svg" xmlns:xlink="http://www.w3.org/1999/xlink" x="0px" y="0px"
	 viewBox="0 0 512.8 512.8" style="enable-background:new 0 0 512.8 512.8;" xml:space="preserve">
<g>
	<path style="fill:#415A6B;" d="M337.867,302.267c-29.867-7.467-51.2-42.667-71.467-76.8l-3.2-5.333l9.6-5.333l3.2,5.333
		c19.2,32,39.467,66.133,65.067,72.533L337.867,302.267z"/>
	<path style="fill:#415A6B;" d="M361.333,308.667c-3.2,7.467-12.8,11.733-20.267,7.467c-7.467-3.2-17.067-14.933-13.867-22.4
		c3.2-7.467,18.133-8.533,25.6-5.333C360.267,291.6,365.6,301.2,361.333,308.667z"/>
</g>
<path style="fill:#55C0EB;" d="M258.933,512.4l-20.267-96L98.933,347.067c0,0-12.8,0-39.467,45.867C36,432.4,23.2,494.267,20,512.4
	H258.933z"/>
<path style="fill:#FFD15C;" d="M313.333,63.333c0,0,25.6,64,19.2,99.2c0,0-4.267,16-1.067,25.6c3.2,9.6,22.4,44.8,22.4,44.8
	s2.133,9.6-4.267,12.8s-14.933,2.133-18.133,4.267c-3.2,2.133-6.4,5.333-4.267,10.667c2.133,5.333-1.067,13.867-8.533,9.6
	c0,0,7.467,6.4,2.133,14.933c0,0-14.933,13.867-12.8,30.933c2.133,17.067-11.733,27.733-24.533,25.6
	c-5.333,0-17.067-2.133-26.667-3.2c-8.533-1.067-18.133,3.2-21.333,11.733l-25.6,61.867l-112-72.533
	c0-1.067,10.667-40.533,10.667-40.533l21.333-222.933L313.333,63.333z"/>
<path style="fill:#8AD7F8;" d="M86.133,330c3.2-7.467,11.733-10.667,18.133-8.533c23.467,8.533,71.467,27.733,97.067,48
	c34.133,26.667,41.6,44.8,41.6,44.8L225.867,461.2c0,0-45.867-26.667-91.733-44.8C88.267,398.267,68,396.133,68,396.133
	s4.267-13.867,5.333-29.867C76.533,355.6,81.867,340.667,86.133,330z"/>
<path style="fill:#F3705A;" d="M313.333,63.333c0,0-59.733,45.867-71.467,68.267s-18.133,23.467-24.533,57.6
	c-6.4,34.133-6.4,34.133-6.4,34.133L180,219.067l2.133-44.8c0,0-33.067,17.067-45.867,59.733
	c-33.067,112-27.733,65.067-27.733,65.067s2.133-17.067-7.467-29.867c-5.333-6.4-14.933-5.333-18.133,3.2
	c-1.067,2.133-2.133,5.333-2.133,9.6l-24.533-9.6c0,0,8.533-19.2,0-42.667s-24.533-78.933-9.6-131.2s48-101.333,118.4-97.067
	S305.867,36.667,313.333,63.333z"/>
<ellipse transform="matrix(-0.1828 -0.9832 0.9832 -0.1828 -1.1065 401.0485)" style="fill:#FFD15C;" cx="166.125" cy="200.984" rx="43.735" ry="26.668"/>
<g>
	<path style="fill:#F3705A;" d="M298.4,47.333C313.333,58,322.933,75.067,324,93.2c-3.2-18.133-14.933-35.2-32-42.667
		c-14.933-6.4-32-6.4-48-6.4"/>
	<path style="fill:#F3705A;" d="M313.333,65.467c0,0-1.067,0-2.133,1.067c-1.067,1.067-3.2,1.067-4.267,2.133
		c-1.067,1.067-2.133,1.067-3.2,2.133c-1.067,1.067-2.133,1.067-3.2,2.133c-1.067,1.067-3.2,2.133-4.267,2.133
		c-1.067,1.067-3.2,2.133-4.267,3.2c-3.2,2.133-6.4,4.267-9.6,7.467c-3.2,3.2-6.4,6.4-9.6,9.6c-3.2,3.2-6.4,7.467-9.6,10.667
		c-3.2,4.267-6.4,8.533-8.533,12.8c-3.2,4.267-5.333,8.533-7.467,13.867c-2.133,4.267-4.267,9.6-5.333,13.867
		c-1.067,4.267-3.2,8.533-4.267,12.8c-1.067,4.267-2.133,8.533-2.133,11.733c0,2.133-1.067,4.267-1.067,5.333
		c0,2.133,0,3.2-1.067,5.333c0,1.067,0,3.2,0,4.267s0,2.133,0,3.2c0,2.133,0,4.267,0,5.333s0,2.133,0,2.133s0-1.067,0-2.133
		s0-3.2,0-5.333c0-1.067,0-2.133,0-4.267c0-1.067,0-3.2,0-4.267c0-1.067,0-3.2,0-5.333c0-2.133,0-3.2,1.067-5.333
		c0-4.267,1.067-8.533,2.133-12.8c1.067-4.267,2.133-8.533,3.2-13.867c1.067-4.267,3.2-9.6,5.333-13.867
		c2.133-4.267,4.267-9.6,6.4-13.867c2.133-4.267,5.333-8.533,8.533-12.8c3.2-4.267,6.4-8.533,9.6-11.733
		c3.2-3.2,6.4-7.467,9.6-10.667c3.2-3.2,6.4-6.4,9.6-8.533c1.067-1.067,3.2-2.133,4.267-3.2c1.067-1.067,3.2-2.133,4.267-3.2
		c1.067,1.067,2.133,0,3.2-1.067c1.067-1.067,2.133-1.067,3.2-2.133c2.133-1.067,3.2-2.133,4.267-3.2c1.067,0,2.133,0,2.133,0
		L313.333,65.467z"/>
	<path style="fill:#F3705A;" d="M297.333,74c0,0-1.067,1.067-3.2,2.133c-1.067,0-1.067,1.067-2.133,1.067s-1.067,1.067-2.133,2.133
		c-1.067,1.067-1.067,1.067-2.133,2.133S285.6,82.533,285.6,83.6c-1.067,1.067-2.133,1.067-2.133,2.133
		c-1.067,1.067-2.133,2.133-3.2,3.2L279.2,90l-1.067,1.067c-1.067,1.067-2.133,2.133-3.2,3.2c-2.133,2.133-3.2,4.267-5.333,7.467
		c-2.133,2.133-3.2,5.333-5.333,7.467c-1.067,3.2-3.2,5.333-4.267,8.533c-1.067,3.2-2.133,5.333-3.2,8.533
		c-1.067,1.067-1.067,3.2-1.067,4.267c0,1.067,0,1.067-1.067,2.133c0,1.067,0,1.067-1.067,2.133c0,1.067-1.067,2.133-1.067,4.267
		c0,1.067-1.067,2.133-1.067,3.2c0,1.067-1.067,2.133-1.067,3.2c0,1.067,0,2.133,0,3.2c0,1.067,0,2.133,0,2.133
		c0,1.067,0,1.067,0,2.133c0,3.2,0,4.267,0,4.267s0-1.067,0-4.267c0-1.067,0-1.067,0-2.133c0-1.067,0-2.133,0-3.2
		c0-1.067,0-2.133,0-3.2c0-1.067,0-2.133,1.067-3.2c0-1.067,0-2.133,1.067-3.2c0-1.067,1.067-2.133,1.067-4.267
		c0-1.067,0-1.067,0-2.133s0-1.067,1.067-2.133c0-1.067,1.067-3.2,1.067-4.267c1.067-3.2,2.133-5.333,3.2-8.533
		c1.067-3.2,2.133-5.333,4.267-8.533c1.067-3.2,3.2-5.333,4.267-8.533c2.133-3.2,3.2-5.333,5.333-7.467
		c1.067-1.067,2.133-2.133,3.2-3.2c0-1.067,1.067-1.067,1.067-2.133c0-1.067,1.067-1.067,1.067-1.067c-1.067,0,0-1.067,1.067-2.133
		c1.067-1.067,2.133-2.133,2.133-3.2c1.067-1.067,2.133-2.133,2.133-2.133c1.067-1.067,2.133-1.067,2.133-2.133
		c2.133-1.067,2.133-1.067,3.2-2.133c1.067-1.067,1.067-1.067,2.133-1.067c2.133-2.133,3.2-3.2,3.2-3.2L297.333,74z"/>
	<path style="fill:#F3705A;" d="M85.067,255.333c-8.533,20.267-5.333,43.733,0,65.067c5.333,21.333,10.667,43.733,4.267,65.067
		c-4.267,14.933-12.8,26.667-23.467,38.4c-9.6,11.733-20.267,22.4-27.733,36.267c-7.467,12.8-10.667,29.867-6.4,43.733
		C17.867,502.8,7.2,490,2.933,477.2s-3.2-27.733-1.067-41.6c6.4-45.867,17.067-90.667,34.133-134.4
		c3.2-8.533,6.4-17.067,11.733-23.467c5.333-7.467,12.8-13.867,21.333-16"/>
</g>
<path style="fill:#415A6B;" d="M82.933,271.333c-9.6-1.067-18.133-5.333-24.533-12.8c-7.467,5.333-11.733,11.733-10.667,21.333
	c10.667,0,21.333,3.2,33.067,9.6C84,284.133,86.133,277.733,82.933,271.333z"/>
<path style="fill:#F7B64C;" d="M256.8,338.533c0,0-67.2-29.867-114.133-91.733c0,1.067,19.2,50.133,90.667,109.867l2.133-6.4
	C239.733,341.733,248.267,337.467,256.8,338.533L256.8,338.533L256.8,338.533z"/>
<path style="fill:#415A6B;" d="M197.067,175.333c-22.4,0-40.533,18.133-40.533,40.533c0,22.4,18.133,40.533,40.533,40.533
	s40.533-18.133,40.533-40.533C238.667,193.467,220.533,175.333,197.067,175.333z M197.067,251.067c-19.2,0-35.2-16-35.2-35.2
	s16-35.2,35.2-35.2s35.2,16,35.2,35.2C232.267,235.067,217.333,251.067,197.067,251.067z"/>
<path style="fill:#344A5E;" d="M197.067,167.867C170.4,167.867,148,189.2,148,216.933C148,243.6,169.333,266,197.067,266
	c26.667,0,49.067-21.333,49.067-49.067S224.8,167.867,197.067,167.867z M197.067,251.067c-19.2,0-35.2-16-35.2-35.2
	s16-35.2,35.2-35.2s35.2,16,35.2,35.2C232.267,235.067,217.333,251.067,197.067,251.067z"/>
<circle style="fill:#F3F3F3;" cx="197.067" cy="215.867" r="35.2"/>
<path style="fill:#CED6E0;" d="M224.8,238.267V214.8c0-13.867-11.733-25.6-25.6-25.6c-13.867,0-25.6,11.733-25.6,25.6v26.667
	c-6.4-6.4-10.667-14.933-10.667-24.533c0-19.2,16-35.2,35.2-35.2s35.2,16,35.2,35.2C232.267,224.4,229.067,232.933,224.8,238.267z"
	/>
<path style="fill:#415A6B;" d="M217.333,226.533c-6.4,10.667-19.2,13.867-29.867,7.467C180,229.733,176.8,222.267,176.8,214.8
	c0-6.4,0-12.8-1.067-19.2c-1.067-8.533-2.133-18.133-3.2-24.533c-1.067-12.8-11.733-61.867-13.867-71.467
	c-2.133-8.533-13.867-61.867-16-75.733s-1.067-22.4-1.067-22.4S146.933,0.4,158.667,0.4c10.667,0,10.667,2.133,10.667,2.133
	C165.067,3.6,161.867,10,159.733,26c-1.067,16,6.4,44.8,6.4,44.8s16,46.933,20.267,65.067c3.2,11.733,14.933,38.4,22.4,55.467
	c2.133,4.267,4.267,8.533,7.467,12.8C220.533,210.533,221.6,219.067,217.333,226.533z"/>
<path style="fill:#66C6B9;" d="M512.8,64.4v85.333c0,7.467-5.333,12.8-12.8,12.8h-72.533l-60.8,44.8l23.467-44.8h-13.867
	c-7.467,0-12.8-5.333-12.8-12.8V64.4c0-7.467,5.333-12.8,12.8-12.8H500C507.467,51.6,512.8,58,512.8,64.4z"/>
<g>
	<rect x="383.733" y="75.067" style="fill:#FFFFFF;" width="107.733" height="11.733"/>
	<rect x="383.733" y="101.733" style="fill:#FFFFFF;" width="107.733" height="11.733"/>
	<rect x="383.733" y="128.4" style="fill:#FFFFFF;" width="75.733" height="11.733"/>
</g>
<g>
</g>
<g>
</g>
<g>
</g>
<g>
</g>
<g>
</g>
<g>
</g>
<g>
</g>
<g>
</g>
<g>
</g>
<g>
</g>
<g>
</g>
<g>
</g>
<g>
</g>
<g>
</g>
<g>
</g>
</svg>
