<svg height="503pt" viewBox="-24 0 503 503.99971" width="503pt" xmlns="http://www.w3.org/2000/svg"><path d="m416.476562 447.65625c0 17.609375-14.402343 32-32 32h-312c-17.601562 0-32-14.390625-32-32v-87.664062c0-17.601563 14.398438-32 32-32h312c17.597657 0 32 14.398437 32 32zm0 0" fill="#ac92ec"/><path d="m359.21875 367.566406c-6.726562-3.460937-13.710938-7.34375-20.925781-11.78125-5.800781-3.554687-11.730469-7.433594-17.816407-11.785156v-40.03125l-18.5625-1.761719c-24.636718 21.121094-51.757812 33.761719-73.4375 33.761719-21.679687 0-48.800781-12.640625-73.441406-33.761719l-18.558594 1.761719v40.03125c-6.097656 4.359375-12.03125 8.230469-17.832031 11.800781-7.207031 4.429688-14.183593 8.3125-20.90625 11.765625-58.503906 30.105469-97.238281 28.800782-97.238281 88.441406v47.992188h455.96875s0-15.992188 0-47.992188c-.007812-59.640624-38.753906-58.335937-97.25-88.441406zm0 0" fill="#a0d468"/><path d="m228.476562 411.984375c73.175782 0 101.550782-40.464844 109.816407-56.191406-5.800781-3.554688-11.730469-7.433594-17.816407-11.785157v-40.03125l-18.5625-1.761718c-24.636718 21.121094-51.757812 33.761718-73.4375 33.761718-21.679687 0-48.800781-12.640624-73.441406-33.761718l-18.558594 1.761718v40.03125c-6.097656 4.351563-12.03125 8.230469-17.832031 11.800782 8.183594 15.832031 36.246094 56.175781 109.832031 56.175781zm0 0" fill="#e5b6a8"/><path d="m367.835938 176 .640624 16c0 44.71875-20.722656 87.679688-48 120-28.722656 33.917969-64.722656 56-92 56-27.28125 0-63.28125-22.082031-92-56-27.28125-32.320312-48-75.28125-48-120v-14.375c45.03125-23.65625 155.390626-70.839844 248.007813-65.394531zm0 0" fill="#f0c7b7"/><g fill="#656d78"><path d="m112.46875 24c-.402344.160156 275.136719-113.359375 255.367188 152l-31.351563-55.761719c-120.800781-7.109375-267.777344 68.160157-271.929687 70.632813-.078126.089844-.078126.089844-.078126.089844 0-120 70.3125-153.601563 70.3125-153.601563zm0 0"/><path d="m56.476562 386.296875v117.703125h40v-135.808594c-14.710937 7.488282-28.144531 13.046875-40 18.105469zm0 0"/><path d="m360.476562 368.191406v135.808594h40v-117.703125c-11.855468-5.058594-25.289062-10.617187-40-18.105469zm0 0"/></g></svg>