<svg id="icons" enable-background="new 0 0 64 64" height="512" viewBox="0 0 64 64" width="512" xmlns="http://www.w3.org/2000/svg"><path d="m52 52v9c0 .55-.45 1-1 1h-16l6-8-2-2 3-4-4-2h8c1.54 0 2.94.57 4 1.53 1.23 1.09 2 2.69 2 4.47z" fill="#e6e9ed"/><path d="m50 47.53c-1.06-.96-2.46-1.53-4-1.53h-4.004c1.54 0 2.94.57 4 1.53 1.23 1.09 2 2.689 2 4.47v9c0 .55-.45 1-1 1h4.004c.55 0 1-.45 1-1v-9c0-1.78-.77-3.38-2-4.47z" fill="#ccd1d9"/><path d="m38 46-5 16h-2l-5-16v-1c0 2.21 2.69 4 6 4s6-1.79 6-4z" fill="#48cfad"/><path d="m26 46 5 16h-2l-6-8 2-2-3-4z" fill="#f5f7fa"/><path d="m23 54 6 8h-16c-.55 0-1-.45-1-1v-9c0-1.78.77-3.38 2-4.47 1.06-.96 2.46-1.53 4-1.53h8l-4 2 3 4z" fill="#e6e9ed"/><path d="m47 20.01v6.99c0 6.15-3.7 11.44-9 13.75-1.84.8-3.87 1.25-6 1.25s-4.16-.45-6-1.25c-5.3-2.31-9-7.6-9-13.75v-6.99z" fill="#eac6bb"/><path d="m42.996 20.01v6.99c0 6.15-3.7 11.44-9 13.75-1.252.545-2.598.911-3.998 1.1.657.088 1.322.15 2.002.15 2.13 0 4.16-.45 6-1.25 5.3-2.31 9-7.6 9-13.75v-6.99z" fill="#d3b1a9"/><path d="m33 62 5-16 4 2-3 4 2 2-6 8z" fill="#f5f7fa"/><path d="m38 40.75v4.25c0 2.21-2.69 4-6 4s-6-1.79-6-4v-4.25c1.84.8 3.87 1.25 6 1.25s4.16-.45 6-1.25z" fill="#eac6bb"/><path d="m50 20.01v27.52c-1.06-.96-2.46-1.53-4-1.53h-8v-1-4.25c5.3-2.31 9-7.6 9-13.75v-6.99z" fill="#844747"/><path d="m26 45v1h-8c-1.54 0-2.94.57-4 1.53v-27.52h3v6.99c0 6.15 3.7 11.44 9 13.75z" fill="#844747"/><path d="m47 20.01h-30-3v-.01-14c0-2.2 1.8-4 4-4h28c2.2 0 4 1.8 4 4v14 .01z" fill="#e6e9ed"/><path d="m46 2h-4.004c2.2 0 4 1.8 4 4v14 .01h1.004 3v-.01-14c0-2.2-1.8-4-4-4z" fill="#ccd1d9"/><g fill="#ed5565"><path d="m32 16.001c-.553 0-1-.447-1-1v-8c0-.553.447-1 1-1s1 .447 1 1v8c0 .553-.447 1-1 1z"/><path d="m36 12.001h-8c-.553 0-1-.447-1-1s.447-1 1-1h8c.553 0 1 .447 1 1s-.447 1-1 1z"/></g></svg>