<?xml version="1.0" encoding="utf-8"?>
<!-- Generator: Adobe Illustrator 21.0.0, SVG Export Plug-In . SVG Version: 6.00 Build 0)  -->
<svg version="1.1" id="Layer_1" xmlns="http://www.w3.org/2000/svg" xmlns:xlink="http://www.w3.org/1999/xlink" x="0px" y="0px"
	 viewBox="0 0 136.5 139.5" style="enable-background:new 0 0 136.5 139.5;" xml:space="preserve">
<style type="text/css">
	.st0{opacity:0.5;}
	.st1{fill:#dfb2ff;}
</style>
<title>bg-pattern</title>
<g id="Layer_2">
	<g id="Layer_1-2">
		<g class="st0">
			<path class="st1" d="M68.8,39.8l5.5-9.6l5.6,9.6L68.8,39.8z M74.3,31.2l-4.7,8.1H79L74.3,31.2z"/>
			<path class="st1" d="M60.3,93.8l5.5-9.6l5.6,9.6L60.3,93.8z M65.9,85.2l-4.7,8.1h9.3L65.9,85.2z"/>
			<path class="st1" d="M89.7,110.4l5.5-9.6l5.6,9.6L89.7,110.4z M95.2,101.8l-4.7,8.1h9.3L95.2,101.8z"/>
			<path class="st1" d="M113.4,77.2l-7.8-7.8l10.7-2.9L113.4,77.2z M106.5,69.7l6.6,6.6l2.4-9L106.5,69.7z"/>
			<path class="st1" d="M29.4,19.9l-7.8-7.8l10.7-2.9L29.4,19.9z M22.5,12.4l6.6,6.6l2.4-9L22.5,12.4z"/>
			<path class="st1" d="M25.9,126.6l-7.8-7.8l10.7-2.9L25.9,126.6z M19,119l6.6,6.6l2.4-9L19,119z"/>
			<path class="st1" d="M115.1,23V11.9l9.6,5.5L115.1,23z M115.6,12.8v9.4l8.1-4.7L115.6,12.8z"/>
			<path class="st1" d="M22.3,74V63l9.6,5.5L22.3,74z M22.8,63.8v9.3l8.1-4.7L22.8,63.8z"/>
			<path class="st1" d="M81.7,66.8c-2.3,0-4.1-1.8-4.1-4.1c0-2.3,1.8-4.1,4.1-4.1c2.3,0,4.1,1.8,4.1,4.1c0,0,0,0,0,0
				C85.8,65,83.9,66.8,81.7,66.8z M81.7,59.1c-2,0-3.6,1.6-3.6,3.6c0,2,1.6,3.6,3.6,3.6c2,0,3.6-1.6,3.6-3.6c0,0,0,0,0,0
				C85.3,60.7,83.7,59.1,81.7,59.1z"/>
			<path class="st1" d="M62.1,23.6c-2.3,0-4.1-1.8-4.1-4.1c0-2.3,1.8-4.1,4.1-4.1c2.3,0,4.1,1.8,4.1,4.1c0,0,0,0,0,0
				C66.2,21.7,64.3,23.6,62.1,23.6z M62.1,15.8c-2,0-3.6,1.6-3.6,3.6c0,2,1.6,3.6,3.6,3.6c2,0,3.6-1.6,3.6-3.6
				C65.7,17.4,64.1,15.8,62.1,15.8z"/>
			<path class="st1" d="M64.6,137.9c-2.3,0-4.1-1.8-4.1-4.1c0-2.3,1.8-4.1,4.1-4.1c2.3,0,4.1,1.8,4.1,4.1c0,0,0,0,0,0
				C68.7,136.1,66.8,137.9,64.6,137.9z M64.6,130.2c-2,0-3.6,1.6-3.6,3.6c0,2,1.6,3.6,3.6,3.6s3.6-1.6,3.6-3.6
				S66.6,130.2,64.6,130.2L64.6,130.2z"/>
			<path class="st1" d="M86.8,128h-0.5c0-2-1.6-3.6-3.6-3.6c-2,0-3.6,1.6-3.6,3.6h-0.5c0.1-2.3,2-4,4.3-3.9
				C84.9,124.2,86.6,125.9,86.8,128L86.8,128z"/>
			<path class="st1" d="M55.9,68.5h-0.5c-0.1-2-1.8-3.5-3.8-3.4c-1.9,0.1-3.3,1.6-3.4,3.4h-0.5c0.1-2.3,2-4,4.3-3.9
				C54.1,64.7,55.8,66.4,55.9,68.5z"/>
			<path class="st1" d="M15.1,37h-0.5c0-2-1.6-3.6-3.6-3.6S7.3,35,7.3,37H6.8c0-2.3,1.8-4.1,4.1-4.1S15.1,34.7,15.1,37z"/>
			<path class="st1" d="M104.8,43.6c-2.3,0.1-4.2-1.6-4.3-3.9s1.6-4.2,3.9-4.3c0.1,0,0.3,0,0.4,0v0.5c-2-0.1-3.7,1.4-3.8,3.4
				c-0.1,2,1.4,3.7,3.4,3.8c0.1,0,0.3,0,0.4,0V43.6z"/>
			<path class="st1" d="M11.5,134c-2.3,0.1-4.2-1.6-4.3-3.9c-0.1-2.3,1.6-4.2,3.9-4.3c0.1,0,0.3,0,0.4,0v0.5c-2-0.1-3.7,1.4-3.8,3.4
				c-0.1,2,1.4,3.7,3.4,3.8c0.1,0,0.3,0,0.4,0V134z"/>
			<path class="st1" d="M53,10.8c-2.3,0-4.1-1.8-4.1-4.1s1.8-4.1,4.1-4.1c0,0,0,0,0,0v0.5c-2,0-3.6,1.6-3.6,3.6s1.6,3.6,3.6,3.6
				c0,0,0,0,0,0V10.8z"/>
			<path class="st1" d="M9.5,97.2c-2.3,0-4.1-1.8-4.1-4.1c0-2.3,1.8-4.1,4.1-4.1c2.3,0,4.1,1.8,4.1,4.1
				C13.7,95.3,11.8,97.1,9.5,97.2C9.5,97.2,9.5,97.2,9.5,97.2z M9.5,89.4c-2,0-3.6,1.6-3.6,3.6s1.6,3.6,3.6,3.6s3.6-1.6,3.6-3.6
				c0,0,0,0,0,0C13.1,91,11.5,89.4,9.5,89.4z"/>
			<path class="st1" d="M129,101.6c-2.3,0-4.1-1.9-4.1-4.1s1.9-4.1,4.1-4.1c2.3,0,4.1,1.8,4.1,4.1C133.1,99.7,131.3,101.6,129,101.6
				L129,101.6z M129,93.8c-2,0-3.6,1.6-3.6,3.6c0,2,1.6,3.6,3.6,3.6c2,0,3.6-1.6,3.6-3.6C132.6,95.5,131,93.8,129,93.8z"/>
			<path class="st1" d="M130.1,43.6h-8.2v-8.2h8.2V43.6z M122.4,43.1h7.2v-7.2h-7.2V43.1z"/>
			<path class="st1" d="M43,47.5h-8.2v-8.2H43V47.5z M35.3,47h7.2v-7.2h-7.2V47z"/>
			<path class="st1" d="M42.6,96.7h-8.2v-8.2h8.2L42.6,96.7z M34.9,96.2h7.2V89h-7.2L34.9,96.2z"/>
			<path class="st1" d="M130.1,134h-8.2v-8.2h8.2V134z M122.4,133.5h7.2v-7.2h-7.2V133.5z"/>
			<path class="st1" d="M98.2,10.8h-8.2V2.6h8.2L98.2,10.8z M90.5,10.3h7.2V3.1h-7.2L90.5,10.3z"/>
			<path class="st1" d="M79.1,81.5c-0.9,0-1.3-0.8-1.7-1.5s-0.8-1.5-1.8-1.5V78c1.3,0,1.8,1,2.2,1.8s0.7,1.2,1.3,1.2V81.5z"/>
			<path class="st1" d="M86.2,81.5c-0.9,0-1.3-0.8-1.7-1.5s-0.8-1.5-1.8-1.5V78c1.3,0,1.8,1,2.2,1.8s0.7,1.2,1.3,1.2V81.5z"/>
			<path class="st1" d="M79.1,81.5V81c0.6,0,0.9-0.5,1.3-1.2s1-1.8,2.2-1.8v0.5c-1,0-1.4,0.7-1.8,1.5S80.1,81.5,79.1,81.5z"/>
			<path class="st1" d="M89.7,78.2"/>
			<path class="st1" d="M86.2,81.5V81c0.6,0,0.9-0.5,1.3-1.2s1-1.8,2.2-1.8v0.5c-1,0-1.4,0.7-1.8,1.5S87.1,81.5,86.2,81.5z"/>
			<path class="st1" d="M99.3,137c-0.9,0-1.3-0.8-1.7-1.5s-0.8-1.5-1.8-1.5v-0.5c1.3,0,1.8,1,2.2,1.8s0.7,1.2,1.3,1.2V137z"/>
			<path class="st1" d="M106.4,137c-0.9,0-1.3-0.8-1.7-1.5s-0.8-1.5-1.8-1.5v-0.5c1.3,0,1.8,1,2.2,1.8s0.7,1.2,1.3,1.2V137z"/>
			<path class="st1" d="M99.3,137v-0.5c0.6,0,0.9-0.5,1.3-1.2s1-1.8,2.2-1.8v0.5c-1,0-1.4,0.7-1.8,1.5S100.2,137,99.3,137z"/>
			<path class="st1" d="M109.9,133.8"/>
			<path class="st1" d="M106.4,137v-0.5c0.6,0,0.9-0.5,1.3-1.2s1-1.8,2.2-1.8l0,0v0.5l0,0c-1,0-1.4,0.7-1.8,1.5S107.3,137,106.4,137
				z"/>
			<path class="st1" d="M108.9,56.9c-0.9,0-1.3-0.8-1.7-1.5s-0.8-1.5-1.8-1.5v-0.5c1.3,0,1.8,1,2.2,1.8s0.7,1.2,1.3,1.2V56.9z"/>
			<path class="st1" d="M116,56.9c-0.9,0-1.3-0.8-1.7-1.5s-0.8-1.5-1.8-1.5v-0.5c1.3,0,1.8,1,2.2,1.8s0.7,1.2,1.3,1.2V56.9z"/>
			<path class="st1" d="M108.9,56.9v-0.5c0.6,0,0.9-0.5,1.3-1.2s0.9-1.8,2.2-1.8v0.5c-1,0-1.4,0.7-1.8,1.5S109.9,56.9,108.9,56.9z"
				/>
			<path class="st1" d="M119.6,53.7"/>
			<path class="st1" d="M116,56.9v-0.5c0.6,0,0.9-0.5,1.3-1.2s0.9-1.8,2.2-1.8l0,0v0.5l0,0c-1,0-1.4,0.7-1.8,1.5S117,56.9,116,56.9z
				"/>
			<path class="st1" d="M10.5,53.3c-0.9,0-1.4-0.8-1.7-1.5S8,50.3,7,50.3v-0.5c1.3,0,1.8,1,2.2,1.8s0.7,1.2,1.3,1.2V53.3z"/>
			<path class="st1" d="M17.6,53.3c-0.9,0-1.4-0.8-1.7-1.5S15,50.3,14,50.3v-0.5c1.3,0,1.8,1,2.2,1.8s0.7,1.2,1.3,1.2V53.3z"/>
			<path class="st1" d="M10.5,53.3v-0.5c0.6,0,0.9-0.5,1.3-1.2s1-1.8,2.2-1.8v0.5c-1,0-1.4,0.7-1.8,1.5S11.4,53.3,10.5,53.3z"/>
			<path class="st1" d="M21.1,50.1"/>
			<path class="st1" d="M17.6,53.3v-0.5c0.6,0,0.9-0.5,1.3-1.2s1-1.8,2.2-1.8v0.5c-1,0-1.4,0.7-1.8,1.5S18.5,53.3,17.6,53.3z"/>
			<path class="st1" d="M77,16.7h-0.5c0-1.3,1-1.8,1.8-2.2s1.2-0.7,1.2-1.3H80c0,0.9-0.8,1.4-1.5,1.7S77,15.7,77,16.7z"/>
			<path class="st1" d="M77,9.6h-0.5c0-1.3,1-1.8,1.8-2.2s1.2-0.7,1.2-1.3H80c0,0.9-0.8,1.3-1.5,1.7C77.8,8.2,77,8.6,77,9.6z"/>
			<path class="st1" d="M80,13.1h-0.5c0-0.6-0.5-0.9-1.2-1.3s-1.8-0.9-1.8-2.2H77c0,1,0.7,1.4,1.5,1.8S80,12.2,80,13.1z"/>
			<path class="st1" d="M76.7,2.5"/>
			<path class="st1" d="M80,6h-0.5c0-0.6-0.5-0.9-1.2-1.3s-1.8-1-1.8-2.2H77c0,1,0.7,1.4,1.5,1.8S80,5.1,80,6z"/>
			<path class="st1" d="M55.3,53.7h-0.5c0-1.3,1-1.8,1.8-2.2s1.2-0.7,1.2-1.3h0.5c0,0.9-0.8,1.3-1.5,1.7S55.3,52.7,55.3,53.7z"/>
			<path class="st1" d="M55.3,46.6h-0.5c0-1.3,1-1.8,1.8-2.2s1.2-0.7,1.2-1.3h0.5c0,0.9-0.8,1.3-1.5,1.7S55.3,45.6,55.3,46.6z"/>
			<path class="st1" d="M58.3,50.2h-0.5c0-0.6-0.5-0.9-1.2-1.3s-1.8-1-1.8-2.2h0.5c0,1,0.7,1.4,1.5,1.8S58.3,49.2,58.3,50.2z"/>
			<path class="st1" d="M55,39.5"/>
			<path class="st1" d="M58.3,43.1h-0.5c0-0.6-0.5-0.9-1.2-1.3s-1.8-1-1.8-2.2h0.5c0,1,0.7,1.4,1.5,1.8S58.3,42.1,58.3,43.1z"/>
			<path class="st1" d="M114.1,112.8h-0.5c0-1.3,1-1.8,1.8-2.2s1.2-0.7,1.2-1.3h0.5c0,0.9-0.8,1.3-1.5,1.7S114.1,111.9,114.1,112.8z
				"/>
			<path class="st1" d="M114.1,105.8h-0.5c0-1.3,1-1.8,1.8-2.2s1.2-0.7,1.2-1.3h0.5c0,0.9-0.8,1.3-1.5,1.7S114.1,104.8,114.1,105.8z
				"/>
			<path class="st1" d="M117.1,109.3h-0.5c0-0.6-0.5-0.9-1.2-1.3s-1.8-1-1.8-2.2h0.5c0,1,0.7,1.4,1.5,1.8S117.1,108.4,117.1,109.3z"
				/>
			<path class="st1" d="M113.9,98.7"/>
			<path class="st1" d="M117.1,102.2h-0.5c0-0.6-0.5-0.9-1.2-1.3s-1.8-0.9-1.8-2.2h0.5c0,1,0.7,1.4,1.5,1.8S117.1,101.3,117.1,102.2
				z"/>
			<path class="st1" d="M41.1,118.4h-0.5c0-1.3,1-1.8,1.8-2.2s1.2-0.7,1.2-1.3h0.5c0,0.9-0.8,1.3-1.5,1.7S41.1,117.4,41.1,118.4z"/>
			<path class="st1" d="M41.1,111.3h-0.5c0-1.3,1-1.8,1.8-2.2s1.2-0.7,1.2-1.3h0.5c0,0.9-0.8,1.3-1.5,1.7S41.1,110.3,41.1,111.3z"/>
			<path class="st1" d="M44.1,114.9h-0.5c0-0.6-0.5-0.9-1.2-1.3s-1.8-0.9-1.8-2.2h0.5c0,1,0.7,1.4,1.5,1.8S44.1,113.9,44.1,114.9z"
				/>
			<path class="st1" d="M40.8,104.3"/>
			<path class="st1" d="M44.1,107.8h-0.5c0-0.6-0.5-0.9-1.2-1.3s-1.8-0.9-1.8-2.2h0.5c0,1,0.7,1.4,1.5,1.8S44.1,106.9,44.1,107.8z"
				/>
			<rect x="87.6" y="88.9" class="st1" width="8.7" height="0.5"/>
			<rect x="1.7" y="63.7" class="st1" width="8.7" height="0.5"/>
			<rect x="88.3" y="23.1" class="st1" width="8.7" height="0.5"/>
			<rect x="122.7" y="3.4" class="st1" width="8.7" height="0.5"/>
			<rect x="36.6" y="133.6" class="st1" width="8.7" height="0.5"/>
			
				<rect x="57.7" y="113.6" transform="matrix(0.7071 -0.7071 0.7071 0.7071 -62.3064 77.2316)" class="st1" width="8.7" height="0.5"/>
			<rect x="6.6" y="6.4" transform="matrix(0.7071 -0.7071 0.7071 0.7071 -1.5302 9.7025)" class="st1" width="8.7" height="0.5"/>
			
				<rect x="125.8" y="69.8" transform="matrix(0.7071 -0.7071 0.7071 0.7071 -11.3958 112.5326)" class="st1" width="8.7" height="0.5"/>
		</g>
	</g>
</g>
</svg>
